<svg width="79" height="79" viewBox="0 0 79 79" fill="none" xmlns="http://www.w3.org/2000/svg">
<path opacity="0.3" fill-rule="evenodd" clip-rule="evenodd" d="M0.784668 39.6859V48.7549C0.784668 65.2118 14.1257 78.5528 30.5826 78.5528H39.6515H48.7204C65.1774 78.5528 78.5183 65.2118 78.5183 48.7548V39.6859V30.617C78.5183 14.1601 65.1774 0.819092 48.7204 0.819092H39.6515H30.5826C14.1256 0.819092 0.784668 14.1601 0.784668 30.617V39.6859Z" fill="#B1B1B1"/>
<path opacity="0.587821" fill-rule="evenodd" clip-rule="evenodd" d="M27.9233 31.5437C27.9233 35.3598 31.0169 38.4534 34.833 38.4534C38.6491 38.4534 41.7427 35.3598 41.7427 31.5437C41.7427 27.7276 38.6491 24.634 34.833 24.634C31.0169 24.634 27.9233 27.7276 27.9233 31.5437ZM45.1968 38.4547C45.1968 41.3168 47.517 43.6369 50.379 43.6369C53.2411 43.6369 55.5613 41.3168 55.5613 38.4547C55.5613 35.5926 53.2411 33.2724 50.379 33.2724C47.517 33.2724 45.1968 35.5926 45.1968 38.4547Z" fill="#B1B1B1"/>
<path fill-rule="evenodd" clip-rule="evenodd" d="M34.8044 41.9089C26.6485 41.9089 19.9571 46.1005 19.2876 54.345C19.2511 54.794 20.1099 55.7283 20.5431 55.7283H49.0786C50.3763 55.7283 50.3965 54.684 50.3763 54.3463C49.8701 45.8702 43.075 41.9089 34.8044 41.9089ZM59.8045 55.7268H56.8128C54.7863 55.7268 53.1744 53.9675 52.7378 51.9886C52.0821 49.0167 54.2421 45.6234 56.7693 47.3192C59.0426 48.8446 60.5456 51.2803 60.7417 54.6903C60.7562 54.9436 60.7417 55.7268 59.8045 55.7268Z" fill="#B1B1B1"/>
</svg>
